<svg id="visual" viewBox="0 0 900 450" width="900" height="450" xmlns="http://www.w3.org/2000/svg" xmlns:xlink="http://www.w3.org/1999/xlink" version="1.1"><rect x="0" y="0" width="900" height="450" fill="#1380f5"></rect><path d="M0 300L21.5 306C43 312 86 324 128.8 320.8C171.7 317.7 214.3 299.3 257.2 296.7C300 294 343 307 385.8 307.2C428.7 307.3 471.3 294.7 514.2 296.2C557 297.7 600 313.3 642.8 326.3C685.7 339.3 728.3 349.7 771.2 351.5C814 353.3 857 346.7 878.5 343.3L900 340L900 451L878.5 451C857 451 814 451 771.2 451C728.3 451 685.7 451 642.8 451C600 451 557 451 514.2 451C471.3 451 428.7 451 385.8 451C343 451 300 451 257.2 451C214.3 451 171.7 451 128.8 451C86 451 43 451 21.5 451L0 451Z" fill="#fff" stroke-linecap="round" stroke-linejoin="miter"></path></svg>