<?xml version="1.0" standalone="no"?>
<svg xmlns:xlink="http://www.w3.org/1999/xlink" id="wave" style="transform:rotate(180deg); transition: 0.3s" viewBox="0 0 1440 490" version="1.1" xmlns="http://www.w3.org/2000/svg"><defs><linearGradient id="sw-gradient-0" x1="0" x2="0" y1="1" y2="0"><stop stop-color="rgba(19, 133, 240, 1)" offset="0%"/><stop stop-color="rgba(19, 133, 240, 1)" offset="100%"/></linearGradient></defs><path style="transform:translate(0, 0px); opacity:1" fill="url(#sw-gradient-0)" d="M0,294L60,277.7C120,261,240,229,360,220.5C480,212,600,229,720,253.2C840,278,960,310,1080,318.5C1200,327,1320,310,1440,269.5C1560,229,1680,163,1800,163.3C1920,163,2040,229,2160,261.3C2280,294,2400,294,2520,318.5C2640,343,2760,392,2880,408.3C3000,425,3120,408,3240,408.3C3360,408,3480,425,3600,416.5C3720,408,3840,376,3960,326.7C4080,278,4200,212,4320,220.5C4440,229,4560,310,4680,351.2C4800,392,4920,392,5040,375.7C5160,359,5280,327,5400,261.3C5520,196,5640,98,5760,106.2C5880,114,6000,229,6120,269.5C6240,310,6360,278,6480,245C6600,212,6720,180,6840,212.3C6960,245,7080,343,7200,326.7C7320,310,7440,180,7560,163.3C7680,147,7800,245,7920,245C8040,245,8160,147,8280,138.8C8400,131,8520,212,8580,253.2L8640,294L8640,490L8580,490C8520,490,8400,490,8280,490C8160,490,8040,490,7920,490C7800,490,7680,490,7560,490C7440,490,7320,490,7200,490C7080,490,6960,490,6840,490C6720,490,6600,490,6480,490C6360,490,6240,490,6120,490C6000,490,5880,490,5760,490C5640,490,5520,490,5400,490C5280,490,5160,490,5040,490C4920,490,4800,490,4680,490C4560,490,4440,490,4320,490C4200,490,4080,490,3960,490C3840,490,3720,490,3600,490C3480,490,3360,490,3240,490C3120,490,3000,490,2880,490C2760,490,2640,490,2520,490C2400,490,2280,490,2160,490C2040,490,1920,490,1800,490C1680,490,1560,490,1440,490C1320,490,1200,490,1080,490C960,490,840,490,720,490C600,490,480,490,360,490C240,490,120,490,60,490L0,490Z"/></svg>