<svg id="visual" viewBox="0 0 900 450" width="900" height="450" xmlns="http://www.w3.org/2000/svg" xmlns:xlink="http://www.w3.org/1999/xlink" version="1.1"><rect x="0" y="0" width="900" height="450" fill="#1380f5"></rect><path d="M0 236L13.7 238.7C27.3 241.3 54.7 246.7 82 258.5C109.3 270.3 136.7 288.7 163.8 285.8C191 283 218 259 245.2 257C272.3 255 299.7 275 327 281.8C354.3 288.7 381.7 282.3 409 275.2C436.3 268 463.7 260 491 257.2C518.3 254.3 545.7 256.7 573 273.3C600.3 290 627.7 321 654.8 323C682 325 709 298 736.2 289.8C763.3 281.7 790.7 292.3 818 289.3C845.3 286.3 872.7 269.7 886.3 261.3L900 253L900 451L886.3 451C872.7 451 845.3 451 818 451C790.7 451 763.3 451 736.2 451C709 451 682 451 654.8 451C627.7 451 600.3 451 573 451C545.7 451 518.3 451 491 451C463.7 451 436.3 451 409 451C381.7 451 354.3 451 327 451C299.7 451 272.3 451 245.2 451C218 451 191 451 163.8 451C136.7 451 109.3 451 82 451C54.7 451 27.3 451 13.7 451L0 451Z" fill="#fff" stroke-linecap="round" stroke-linejoin="miter"></path></svg>