<svg id="visual" viewBox="0 0 540 960" width="540" height="960" xmlns="http://www.w3.org/2000/svg" xmlns:xlink="http://www.w3.org/1999/xlink" version="1.1"><rect x="0" y="0" width="540" height="960" fill="#1385f0"></rect><path d="M0 747L8.2 734.3C16.3 721.7 32.7 696.3 49 696.2C65.3 696 81.7 721 98 713.2C114.3 705.3 130.7 664.7 147 667.3C163.3 670 179.7 716 196 734.5C212.3 753 228.7 744 245.2 738.2C261.7 732.3 278.3 729.7 294.8 721.7C311.3 713.7 327.7 700.3 344 704.3C360.3 708.3 376.7 729.7 393 722.7C409.3 715.7 425.7 680.3 442 662.2C458.3 644 474.7 643 491 669.3C507.3 695.7 523.7 749.3 531.8 776.2L540 803L540 961L531.8 961C523.7 961 507.3 961 491 961C474.7 961 458.3 961 442 961C425.7 961 409.3 961 393 961C376.7 961 360.3 961 344 961C327.7 961 311.3 961 294.8 961C278.3 961 261.7 961 245.2 961C228.7 961 212.3 961 196 961C179.7 961 163.3 961 147 961C130.7 961 114.3 961 98 961C81.7 961 65.3 961 49 961C32.7 961 16.3 961 8.2 961L0 961Z" fill="#ffffff" stroke-linecap="round" stroke-linejoin="miter"></path></svg>