<?xml version="1.0" standalone="no"?>
<svg xmlns:xlink="http://www.w3.org/1999/xlink" id="wave" style="transform:rotate(180deg); transition: 0.3s" viewBox="0 0 1440 490" version="1.1" xmlns="http://www.w3.org/2000/svg"><defs><linearGradient id="sw-gradient-0" x1="0" x2="0" y1="1" y2="0"><stop stop-color="rgba(19, 133, 240, 1)" offset="0%"/><stop stop-color="rgba(19, 133, 240, 1)" offset="100%"/></linearGradient></defs><path style="transform:translate(0, 0px); opacity:1" fill="url(#sw-gradient-0)" d="M0,147L30,187.8C60,229,120,310,180,310.3C240,310,300,229,360,220.5C420,212,480,278,540,261.3C600,245,660,147,720,163.3C780,180,840,310,900,334.8C960,359,1020,278,1080,220.5C1140,163,1200,131,1260,147C1320,163,1380,229,1440,220.5C1500,212,1560,131,1620,155.2C1680,180,1740,310,1800,334.8C1860,359,1920,278,1980,245C2040,212,2100,229,2160,228.7C2220,229,2280,212,2340,204.2C2400,196,2460,196,2520,187.8C2580,180,2640,163,2700,171.5C2760,180,2820,212,2880,245C2940,278,3000,310,3060,334.8C3120,359,3180,376,3240,367.5C3300,359,3360,327,3420,310.3C3480,294,3540,294,3600,285.8C3660,278,3720,261,3780,285.8C3840,310,3900,376,3960,400.2C4020,425,4080,408,4140,359.3C4200,310,4260,229,4290,187.8L4320,147L4320,490L4290,490C4260,490,4200,490,4140,490C4080,490,4020,490,3960,490C3900,490,3840,490,3780,490C3720,490,3660,490,3600,490C3540,490,3480,490,3420,490C3360,490,3300,490,3240,490C3180,490,3120,490,3060,490C3000,490,2940,490,2880,490C2820,490,2760,490,2700,490C2640,490,2580,490,2520,490C2460,490,2400,490,2340,490C2280,490,2220,490,2160,490C2100,490,2040,490,1980,490C1920,490,1860,490,1800,490C1740,490,1680,490,1620,490C1560,490,1500,490,1440,490C1380,490,1320,490,1260,490C1200,490,1140,490,1080,490C1020,490,960,490,900,490C840,490,780,490,720,490C660,490,600,490,540,490C480,490,420,490,360,490C300,490,240,490,180,490C120,490,60,490,30,490L0,490Z"/></svg>